<svg xmlns="http://www.w3.org/2000/svg" width="13" height="13" fill="#00d7d2" viewBox="0 0 32 32" aria-hidden="true" class="www-Icon"><path d="M16.84 17.68l-4.96 4.88c-.64.64-.64 1.76 0 2.4.32.32.72.48 1.2.48s.88-.16 1.2-.48l7.84-7.84c.08-.08.16-.16.24-.32.08-.08.08-.16.16-.24v-.08c0-.08.08-.16.08-.24.08-.24.08-.48 0-.64 0-.08 0-.16-.08-.24v-.08c0-.08-.08-.16-.08-.24l-.08-.08-.24-.24-7.84-7.84c-.32-.32-.72-.48-1.2-.48s-.88.16-1.2.48c-.32.32-.48.72-.48 1.2s.16.88.48 1.2l4.96 4.88 1.48 1.68-1.48 1.84z"></path></svg>