<svg xmlns="http://www.w3.org/2000/svg" width="41" height="41" viewBox="0 0 41 41" aria-hidden="true" class="www-Icon www-Icon--xlarge"><g fill="#0069FF" fill-rule="nonzero"><path d="M19.2 34.57c-8.472 0-15.34-6.868-15.34-15.34S10.728 3.89 19.2 3.89s15.34 6.868 15.34 15.34c-.011 8.467-6.873 15.329-15.34 15.34zm0-28.21c-7.097 0-12.85 5.753-12.85 12.85 0 7.097 5.753 12.85 12.85 12.85 7.097 0 12.85-5.753 12.85-12.85 0-7.097-5.753-12.85-12.85-12.85z"></path><path d="M19.25 25.57a6.3 6.3 0 1 1 0-12.6 6.3 6.3 0 0 1 0 12.6zm0-10.09A3.81 3.81 0 1 0 23 19.31a3.81 3.81 0 0 0-3.75-3.83z"></path><path d="M18 0h2.49v14.11H18V0zM3.396 7.985l1.572-1.931 10.973 8.933-1.572 1.931L3.396 7.985zm19.164 6.97L33.532 6.02l1.572 1.93-10.972 8.936-1.572-1.93zm1.6 6.652l.533-2.432 13.802 3.027-.534 2.432-13.802-3.027zM0 22.2l13.803-3.025.533 2.432L.533 24.632 0 22.2zm20.452 2.031l2.245-1.077L28.956 36.2l-2.245 1.077-6.26-13.046zM9.545 36.19l6.153-13.052 2.252 1.061-6.153 13.053-2.252-1.062z"></path></g></svg>